#!OML:ASF F:\VICON\USERDATA\INSTALL\rory3\rory3.ASF
:FULLY-SPECIFIED
:DEGREES
697
root 0.346293 15.594 -6.24233 -199.624 142.562 -180.451
lowerback 26.1918 0.503614 -0.325221
upperback 14.2834 1.14923 -0.346406
thorax 1.36987 0.826144 -0.459545
lowerneck -9.90563 -3.81783 -9.21941
upperneck -5.34044 -3.92049 13.5045
head 0.54214 -1.65601 5.47094
rclavicle -2.69353e-014 2.16675e-014
rhumerus -50.1941 37.3542 -104.861
rradius 45.4341
rwrist 31.2949
rhand -57.96 39.8725
rfingers 7.12502
rthumb -30.2077 12.323
lclavicle -2.69353e-014 2.16675e-014
lhumerus -49.5778 -43.9831 109.17
lradius 40.2021
lwrist -21.164
lhand -44.4986 7.13833
lfingers 7.12502
lthumb -17.3012 36.3882
rfemur -32.7676 -4.03631 10.6545
rtibia 66.7738
rfoot -14.0634 -17.6042
rtoes 3.78208
lfemur -33.02 5.97774 -8.77835
ltibia 61.0047
lfoot -4.17904 -4.41142
ltoes -0.0813998
698
root 0.345074 15.5941 -6.24297 -199.681 142.574 -180.514
lowerback 26.2091 0.493403 -0.300148
upperback 14.2654 1.14069 -0.327143
thorax 1.34119 0.82192 -0.451485
lowerneck -9.80754 -3.78822 -9.17114
upperneck -5.37249 -3.89029 13.4513
head 0.51089 -1.64633 5.44904
rclavicle -5.98342e-014 1.53064e-014
rhumerus -50.195 37.3559 -104.856
rradius 45.4139
rwrist 31.3515
rhand -57.9274 39.8484
rfingers 7.12502
rthumb -30.1766 12.2933
lclavicle -5.98342e-014 1.53064e-014
lhumerus -49.5687 -43.9213 109.145
lradius 40.2086
lwrist -21.2042
lhand -44.4905 7.2973
lfingers 7.12502
lthumb -17.2933 36.5479
rfemur -32.7433 -4.0044 10.7095
rtibia 66.7601
rfoot -14.1033 -17.6151
rtoes 4.13241
lfemur -33.0078 5.96407 -8.68491
ltibia 61.025
lfoot -4.14484 -4.46399
ltoes 0.843573
699
root 0.344482 15.5941 -6.24243 -199.71 142.627 -180.567
lowerback 26.1808 0.507832 -0.275662
upperback 14.2473 1.16291 -0.312426
thorax 1.33379 0.833041 -0.454572
lowerneck -9.77057 -3.76225 -9.16253
upperneck -5.32711 -3.86324 13.453
head 0.515058 -1.63382 5.44932
rclavicle 6.57977e-014 -3.89618e-014
rhumerus -50.1741 37.2571 -104.82
rradius 45.3974
rwrist 31.4275
rhand -57.8671 40.2612
rfingers 7.12502
rthumb -30.1191 12.6956
lclavicle 6.57977e-014 -3.89618e-014
lhumerus -49.6285 -43.9324 109.184
lradius 40.2077
lwrist -21.1881
lhand -44.4304 7.21921
lfingers 7.12502
lthumb -17.2355 36.4749
rfemur -32.751 -3.97812 10.7867
rtibia 66.7468
rfoot -14.0503 -17.6308
rtoes 4.13282
lfemur -33.0139 6.03694 -8.61378
ltibia 61.0347
lfoot -4.12337 -4.51916
ltoes 0.522795
700
root 0.344837 15.596 -6.24242 -199.695 142.639 -180.563
lowerback 26.1287 0.510498 -0.278124
upperback 14.2421 1.16485 -0.316756
thorax 1.35205 0.833585 -0.45747
lowerneck -9.77091 -3.73427 -9.16068
upperneck -5.27079 -3.83081 13.4662
head 0.528286 -1.61684 5.45406
rclavicle 1.68967e-014 -1.55052e-014
rhumerus -50.1373 37.0777 -104.725
rradius 45.4479
rwrist 31.4943
rhand -57.7316 40.8444
rfingers 7.12502
rthumb -29.9898 13.2553
lclavicle 1.68967e-014 -1.55052e-014
lhumerus -49.6368 -43.965 109.212
lradius 40.1539
lwrist -21.1462
lhand -44.3703 7.08699
lfingers 7.12502
lthumb -17.1777 36.3477
rfemur -32.7567 -3.9768 10.7933
rtibia 66.7337
rfoot -13.9882 -17.6375
rtoes 3.86082
lfemur -33.0192 6.04033 -8.61698
ltibia 61.0359
lfoot -4.12865 -4.52661
ltoes 0.262136
701
root 0.345519 15.5955 -6.24393 -199.673 142.625 -180.57
lowerback 26.1061 0.494414 -0.248866
upperback 14.2189 1.1489 -0.3238
thorax 1.33656 0.826939 -0.477871
lowerneck -9.68406 -3.72191 -9.15186
upperneck -5.30903 -3.81775 13.4766
head 0.502008 -1.61405 5.45773
rclavicle 5.96354e-014 -1.51076e-014
rhumerus -50.1328 36.8458 -104.604
rradius 45.5439
rwrist 31.6237
rhand -57.5964 41.0908
rfingers 7.12502
rthumb -29.8608 13.4784
lclavicle 5.96354e-014 -1.51076e-014
lhumerus -49.6762 -43.9528 109.224
lradius 40.184
lwrist -21.1326
lhand -44.2708 7.1321
lfingers 7.12502
lthumb -17.0819 36.4011
rfemur -32.7769 -3.98878 10.7866
rtibia 66.7253
rfoot -13.9834 -17.6351
rtoes 3.75445
lfemur -33.0616 6.05467 -8.65086
ltibia 61.0404
lfoot -4.16193 -4.47113
ltoes -0.13673
702
root 0.345903 15.5931 -6.2456 -199.724 142.648 -180.666
lowerback 26.116 0.483835 -0.15896
upperback 14.2025 1.15422 -0.299335
thorax 1.31416 0.833451 -0.504164
lowerneck -9.57003 -3.73023 -9.12404
upperneck -5.40765 -3.83101 13.4597
head 0.455447 -1.62669 5.44942
rclavicle 9.87463e-014 -7.37491e-014
rhumerus -50.0874 36.6591 -104.464
rradius 45.5896
rwrist 31.7977
rhand -57.5008 41.1133
rfingers 7.12502
rthumb -29.7695 13.4845
lclavicle 9.87463e-014 -7.37491e-014
lhumerus -49.7337 -43.9522 109.24
lradius 40.2796
lwrist -21.0943
lhand -44.1622 7.30801
lfingers 7.12502
lthumb -16.9773 36.5861
rfemur -32.7887 -3.98386 10.877
rtibia 66.7133
rfoot -13.9842 -17.6925
rtoes 3.62738
lfemur -33.0975 6.10982 -8.58635
ltibia 61.0548
lfoot -4.1823 -4.45706
ltoes -0.535604
703
root 0.34512 15.5926 -6.24652 -199.851 142.681 -180.801
lowerback 26.1363 0.47031 -0.0802496
upperback 14.2217 1.15582 -0.257111
thorax 1.32689 0.837494 -0.503598
lowerneck -9.51472 -3.71672 -9.10557
upperneck -5.47448 -3.81237 13.4396
head 0.423984 -1.62068 5.44222
rclavicle -5.97845e-014 3.81667e-014
rhumerus -50.0203 36.626 -104.368
rradius 45.6055
rwrist 31.9284
rhand -57.4551 41.0437
rfingers 7.12502
rthumb -29.7259 13.4072
lclavicle -5.97845e-014 3.81667e-014
lhumerus -49.7438 -43.9746 109.251
lradius 40.3137
lwrist -21.0443
lhand -44.127 7.28263
lfingers 7.12502
lthumb -16.9435 36.5636
rfemur -32.7363 -3.96074 11.0154
rtibia 66.7007
rfoot -13.9541 -17.7722
rtoes 3.48858
lfemur -33.0685 6.10631 -8.44609
ltibia 61.0739
lfoot -4.17658 -4.48493
ltoes -0.370678
704
root 0.344952 15.5928 -6.24806 -199.821 142.658 -180.749
lowerback 26.1119 0.467056 -0.150854
upperback 14.2224 1.13617 -0.255463
thorax 1.3376 0.823081 -0.456577
lowerneck -9.49203 -3.69235 -9.15666
upperneck -5.47224 -3.77617 13.4685
head 0.418905 -1.60236 5.46176
rclavicle -2.90226e-014 9.54166e-015
rhumerus -50.0017 36.6954 -104.339
rradius 45.6355
rwrist 31.9441
rhand -57.4492 40.9187
rfingers 7.12502
rthumb -29.7203 13.2811
lclavicle -2.90226e-014 9.54166e-015
lhumerus -49.7478 -43.9331 109.247
lradius 40.3728
lwrist -21.0428
lhand -44.0415 7.1919
lfingers 7.12502
lthumb -16.8612 36.4799
rfemur -32.7363 -3.97272 10.9577
rtibia 66.7004
rfoot -13.9415 -17.7478
rtoes 3.50382
lfemur -33.073 6.06665 -8.50234
ltibia 61.0834
lfoot -4.18125 -4.456
ltoes -0.34665
705
root 0.345281 15.5924 -6.24912 -199.708 142.656 -180.652
lowerback 26.0101 0.485102 -0.25366
upperback 14.2221 1.13594 -0.260177
thorax 1.38293 0.816286 -0.401462
lowerneck -9.5375 -3.68982 -9.19376
upperneck -5.39763 -3.7731 13.479
head 0.44861 -1.59767 5.47014
rclavicle 3.44394e-014 -2.38542e-015
rhumerus -49.9449 36.739 -104.261
rradius 45.6614
rwrist 31.9233
rhand -57.4379 40.9142
rfingers 7.12502
rthumb -29.7095 13.2747
lclavicle 3.44394e-014 -2.38542e-015
lhumerus -49.7389 -43.953 109.288
lradius 40.3852
lwrist -20.928
lhand -43.9426 7.11187
lfingers 7.12502
lthumb -16.7659 36.408
rfemur -32.8126 -3.99839 10.8722
rtibia 66.7084
rfoot -13.8112 -17.7027
rtoes 3.24228
lfemur -33.1276 6.08345 -8.59571
ltibia 61.0941
lfoot -4.18702 -4.43976
ltoes -0.635805
